<?xml version="1.0" encoding="utf-8"?>
<!-- Generator: Adobe Illustrator 20.1.0, SVG Export Plug-In . SVG Version: 6.00 Build 0)  -->
<svg version="1.1" id="Layer_1" xmlns="http://www.w3.org/2000/svg" xmlns:xlink="http://www.w3.org/1999/xlink" x="0px" y="0px"
	 viewBox="0 0 595.3 597" style="enable-background:new 0 0 595.3 597;" xml:space="preserve">
<style type="text/css">
	.st0{fill:#E83E5A;}
</style>
<path id="XMLID_1120_" class="st0" d="M458.6,152.1l0,73.2c0,8.1-6.6,14.6-14.6,14.6l0,0c-8.1,0-14.6-6.6-14.6-14.6v-37.8l-85,85.1
	c-2.9,2.9-6.6,4.3-10.4,4.3c-3.7,0-7.5-1.4-10.3-4.3c-5.7-5.7-5.7-15,0-20.7l85.1-85.1h-37.8c-8.1,0-14.6-6.6-14.6-14.6
	c0-8.1,6.6-14.6,14.6-14.6H444c3.9,0,7.6,1.5,10.3,4.3C457.1,144.5,458.6,148.3,458.6,152.1z M444,357c-8.1,0-14.6,6.6-14.6,14.6
	v37.8l-83.6-82.9c-5.7-5.7-15.4-5.7-21.1,0c-5.7,5.7-5.9,15-0.2,20.7l82.7,82.9h-37.9c0,0,0,0,0,0c-8.1,0-14.6,6.5-14.6,14.6
	c0,8.1,6.5,14.6,14.6,14.6l73.1,0l0,0c3.9,0,8.4-1.5,11.1-4.3c2.7-2.7,5.1-6.5,5.1-10.3v-73.2C458.6,363.6,452.1,357,444,357z
	 M249.5,326l-83.6,83.5v-37.8c0-8.1-6.4-14.6-14.5-14.6h0.1c-8.1,0-14.6,6.5-14.6,14.6l0,73.2c0,3.9,1.5,7.6,4.3,10.4
	c2.7,2.7,6.5,4.3,10.4,4.3h73.1c8.1,0,14.6-6.6,14.6-14.6c0-8.1-6.6-14.6-14.6-14.6h-37.8l83.5-83.6c5.7-5.7,5.6-15-0.1-20.7
	C264.6,320.2,255.2,320.2,249.5,326z M186.6,168.1l37.8,0h0c8.1,0,14.6-6.6,14.6-14.6c0-8.1-6.6-14.6-14.6-14.6l-73.1,0h0
	c-3.9,0-7.6,1.5-10.3,4.3c-2.7,2.7-4.3,6.5-4.3,10.4l0,73.2c0,8.1,6.5,14.6,14.6,14.6c8.1,0,14.6-6.6,14.6-14.6v-37.8l84.4,84.4
	c2.9,2.9,6.6,4.3,10.4,4.3c3.7,0,7.5-1.4,10.3-4.3c5.7-5.7,5.7-15,0-20.7L186.6,168.1z"/>
</svg>
