<?xml version="1.0" encoding="utf-8"?>
<!-- Generator: Adobe Illustrator 20.1.0, SVG Export Plug-In . SVG Version: 6.00 Build 0)  -->
<svg version="1.1" id="Layer_1" xmlns="http://www.w3.org/2000/svg" xmlns:xlink="http://www.w3.org/1999/xlink" x="0px" y="0px"
	 viewBox="0 0 283.5 283.5" style="enable-background:new 0 0 283.5 283.5;" xml:space="preserve">
<style type="text/css">
	.st0{fill:#1D1D1B;}
</style>
<path id="XMLID_1054_" class="st0" d="M186.6,65.7c-11.5-10.2-27.4-15.9-44.9-15.9s-33.4,5.6-44.9,15.9c-13.8,12.3-21.1,31-21.1,54
	c0,50.2,57.8,109.1,60.3,111.6c1.5,1.5,3.5,2.4,5.7,2.4c2.1,0,4.2-0.9,5.7-2.4c2.5-2.5,60.3-61.3,60.3-111.6
	C207.7,96.7,200.4,78,186.6,65.7z M141.7,213.9c-5.4-6-13.9-16-22.4-28c-18-25.5-27.5-48.4-27.5-66.2c0-50,38.2-53.9,50-53.9
	c46.3,0,50,41.3,50,53.9C191.7,154.9,155.9,198.2,141.7,213.9z M141.7,84.3c-17.5,0-31.8,14.5-31.8,32.3s14.3,32.3,31.8,32.3
	c17.5,0,31.8-14.5,31.8-32.3S159.3,84.3,141.7,84.3z M141.7,134.9c-9.8,0-17.8-8.2-17.8-18.3s8-18.3,17.8-18.3
	c9.8,0,17.8,8.2,17.8,18.3S151.6,134.9,141.7,134.9z"/>
</svg>
