<?xml version="1.0" encoding="utf-8"?>
<!-- Generator: Adobe Illustrator 20.1.0, SVG Export Plug-In . SVG Version: 6.00 Build 0)  -->
<svg version="1.1" id="Layer_1" xmlns="http://www.w3.org/2000/svg" xmlns:xlink="http://www.w3.org/1999/xlink" x="0px" y="0px"
	 viewBox="0 0 841.9 595.3" style="enable-background:new 0 0 841.9 595.3;" xml:space="preserve">
<style type="text/css">
	.st0{fill:#E83E5A;}
</style>
<g>
	<path class="st0" d="M306,289.4v47h-23v-43.7c0-9.5-6-13.9-13.3-13.9c-8.4,0-14.2,4.9-14.2,15.8v41.8h-23v-99.7l23-10.7V267
		c4.1-5.7,11.8-9.3,21.9-9.3C292.8,257.7,306,268.7,306,289.4z"/>
	<path class="st0" d="M359.1,318c6.3,0,11.6-2.5,14.7-5.8l18.4,10.6c-7.5,10.4-18.8,15.8-33.4,15.8c-26.2,0-42.4-17.6-42.4-40.4
		s16.5-40.4,40.7-40.4c22.4,0,38.9,17.3,38.9,40.4c0,3.2-0.3,6.3-0.9,9.2h-54.4C343.7,315.3,350.7,318,359.1,318z M373.2,290.1
		c-2.5-8.9-9.3-12.1-16.2-12.1c-8.7,0-14.6,4.3-16.7,12.1H373.2z"/>
	<path class="st0" d="M407.5,228.9l23,7.2v100.3h-23V228.9z"/>
	<path class="st0" d="M528.2,298.1c0,22.8-16.5,40.4-36.6,40.4c-10.3,0-17.8-3.5-22.8-9.3V367h-23V259.8h23v7.2
		c5.1-5.8,12.6-9.3,22.8-9.3C511.7,257.7,528.2,275.3,528.2,298.1z M505.3,298.1c0-11.5-7.7-18.7-18.2-18.7
		c-10.6,0-18.2,7.2-18.2,18.7c0,11.5,7.7,18.7,18.2,18.7C497.6,316.8,505.3,309.6,505.3,298.1z"/>
	<path class="st0" d="M609.4,259.8l-26.2,74.3c-8.6,24.4-22.2,34-43.7,32.9v-21.4c10.7,0,15.8-3.4,19.1-12.7l-30.5-73.1h25.3
		l17,46.9l14.4-46.9H609.4z"/>
</g>
<circle class="st0" cx="548" cy="233.5" r="7.8"/>
<circle class="st0" cx="589.9" cy="233.5" r="11.5"/>
</svg>
