<?xml version="1.0" encoding="utf-8"?>
<!-- Generator: Adobe Illustrator 20.1.0, SVG Export Plug-In . SVG Version: 6.00 Build 0)  -->
<svg version="1.1" id="Layer_1" xmlns="http://www.w3.org/2000/svg" xmlns:xlink="http://www.w3.org/1999/xlink" x="0px" y="0px"
	 viewBox="0 0 283.5 283.5" style="enable-background:new 0 0 283.5 283.5;" xml:space="preserve">
<style type="text/css">
	.st0{fill:#D9D9D9;}
</style>
<path id="XMLID_43_" class="st0" d="M207.5,185.9c-11.6,0-16.1-6.8-16.1-48.9c0-33-15-53.8-40.8-56.9V69.6c0-3.8-3.1-6.9-6.9-6.9
	c-3.8,0-6.9,3.1-6.9,6.9V80c-27.6,2.2-43.5,23.2-43.5,57.1c0,42.1-5,48.9-16.6,48.9c-3.8,0-7,2.7-7,6.5c0,3.8,3,6.5,6.8,6.5h44.8
	c0.5,5.2,2.1,11.5,6.3,16.1c3.6,3.9,8.5,6.2,14.1,6.2c5.6,0,10.5-2.4,14.2-6.2c4.3-4.6,6.1-10.9,6.7-16.1h44.9
	c3.8,0,6.9-2.7,6.9-6.5C214.4,188.6,211.3,185.9,207.5,185.9z M145.8,205.6c-0.7,0.7-1.8,1.8-4.1,1.8c-2.3,0-3.3-1.1-3.9-1.8
	c-1.4-1.5-2.1-3.2-2.5-6.7h5.8c0.3,0,0.7,0,1-0.1c0.3,0,0.7,0.1,1,0.1h5.6C148.1,202.3,147.3,204.1,145.8,205.6z M143,185.1
	c-0.3,0-0.7,0-1,0.1c-0.3,0-0.7-0.1-1-0.1h-40.7c6.4-12.1,6.4-30.8,6.4-48.4c0-28,12.2-42.9,34.3-42.9h2c22.1,0,34.3,14.9,34.3,42.9
	c0,17.6,0,36.3,6.4,48.4H143z M167.5,124c0.2,3.3-2.3,6.2-5.7,6.4c-0.1,0-0.2,0-0.4,0c-3.2,0-5.8-2.5-6-5.7
	c-0.5-7.7-6.5-10.5-7.2-10.8c-3-1.3-4.5-4.8-3.2-7.9c1.3-3,4.7-4.5,7.8-3.3C153.4,102.9,166.6,108.4,167.5,124z"/>
</svg>
