<?xml version="1.0" encoding="utf-8"?>
<!-- Generator: Adobe Illustrator 20.1.0, SVG Export Plug-In . SVG Version: 6.00 Build 0)  -->
<svg version="1.1" id="Layer_1" xmlns="http://www.w3.org/2000/svg" xmlns:xlink="http://www.w3.org/1999/xlink" x="0px" y="0px"
	 viewBox="0 0 283.5 283.5" style="enable-background:new 0 0 283.5 283.5;" xml:space="preserve">
<style type="text/css">
	.st0{fill:#FB3958;}
</style>
<path id="XMLID_1126_" class="st0" d="M204.6,79.4c-16.7-16.7-39-25.9-62.6-25.9c0,0,0,0,0,0c-23.6,0-45.9,9.2-62.6,25.9
	c-16.7,16.7-25.9,39-25.9,62.6s9.2,45.9,25.9,62.6c16.7,16.7,39,25.9,62.6,25.9c23.6,0,45.9-9.2,62.6-25.9
	c16.7-16.7,25.9-39,25.9-62.6C230.5,118.4,221.3,96.1,204.6,79.4z M187.2,131.2l26.4-4.1c1,4.9,1.5,9.8,1.5,14.9
	c0,5.1-0.5,10.1-1.5,14.9l-26.4-4.1C188.9,145.7,188.9,138.3,187.2,131.2z M210.4,115.9l-27.3,4.2c-2.1-4-4.8-7.7-8.2-11.1
	c-3.3-3.3-7.1-6.1-11.1-8.2l4.2-27.3c9.5,3.6,18.2,9.2,25.6,16.6C201.1,97.7,206.7,106.4,210.4,115.9z M142,173.1
	c-8.3,0-16.1-3.2-22-9.1c-5.9-5.9-9.1-13.7-9.1-22s3.2-16.1,9.1-22c6.1-6.1,14-9.1,22-9.1c8,0,15.9,3,22,9.1
	c5.9,5.9,9.1,13.7,9.1,22c0,8.3-3.2,16.1-9.1,22C158.1,169.9,150.3,173.1,142,173.1z M142,68.9c5.1,0,10.1,0.5,14.9,1.5l-4.1,26.4
	c-7.1-1.7-14.5-1.7-21.6,0l-4.1-26.4C131.9,69.4,136.9,68.9,142,68.9z M90.3,90.3c7.4-7.4,16.1-13,25.6-16.6l4.2,27.3
	c-4,2.1-7.7,4.8-11.1,8.2c-3.3,3.3-6.1,7-8.2,11.1l-27.3-4.2C77.3,106.4,82.9,97.7,90.3,90.3z M68.9,142c0-5.1,0.5-10.1,1.5-14.9
	l26.4,4.1c-0.8,3.5-1.3,7.1-1.3,10.8c0,3.7,0.4,7.3,1.3,10.8l-26.4,4.1C69.4,152.1,68.9,147.1,68.9,142z M73.6,168.1l27.3-4.2
	c2.1,4,4.9,7.7,8.2,11.1c3.3,3.3,7,6.1,11.1,8.2l-4.2,27.3c-9.5-3.6-18.2-9.2-25.6-16.6C82.9,186.3,77.3,177.6,73.6,168.1z
	 M142,215.1c-5.1,0-10.1-0.5-14.9-1.5l4.1-26.4c3.5,0.8,7.1,1.3,10.8,1.3h0c3.7,0,7.3-0.4,10.8-1.3l4.1,26.4
	C152.1,214.6,147.1,215.1,142,215.1z M193.7,193.7c-7.4,7.4-16.1,13-25.6,16.6l-4.2-27.3c4-2.1,7.7-4.9,11.1-8.2
	c3.3-3.3,6.1-7.1,8.2-11.1l27.3,4.2C206.7,177.6,201.1,186.3,193.7,193.7z"/>
</svg>
